<svg version="1.1" id="Layer_1" xmlns="http://www.w3.org/2000/svg" xmlns:xlink="http://www.w3.org/1999/xlink" x="0px" y="0px"
	 width="100%" viewBox="0 0 917 918" enable-background="new 0 0 917 918" xml:space="preserve">
<path fill="#000000" opacity="1.000000" stroke="none" 
	d="
M424.000000,919.000000 
	C282.666656,919.000000 141.833328,919.000000 1.000000,919.000000 
	C1.000000,613.000000 1.000000,307.000000 1.000000,1.000000 
	C306.666656,1.000000 612.333313,1.000000 918.000000,1.000000 
	C918.000000,307.000000 918.000000,613.000000 918.000000,919.000000 
	C753.500000,919.000000 589.000000,919.000000 424.000000,919.000000 
M684.422729,518.935608 
	C684.664673,518.326355 684.906616,517.717163 685.685364,516.649963 
	C686.104126,515.080322 686.522888,513.510742 687.077942,511.161285 
	C686.765442,509.714325 686.452942,508.267334 686.053101,506.084808 
	C685.112488,500.223328 680.719727,497.237183 675.785889,496.230682 
	C670.175110,495.086121 663.891418,495.117371 660.363159,501.087067 
	C657.152405,506.519653 656.434387,512.366760 659.936584,518.750549 
	C660.250977,519.215820 660.565369,519.681091 661.094727,520.561279 
	C661.286560,520.825378 661.541016,520.996033 662.194153,521.593506 
	C662.773621,521.779907 663.353088,521.966309 664.342041,522.773193 
	C671.608765,526.857361 678.535889,525.620544 684.422729,518.935608 
M634.149109,643.165833 
	C633.824036,642.050781 633.498962,640.935730 633.048096,639.083069 
	C631.452148,630.137024 623.636353,627.189331 615.633606,628.036743 
	C609.844543,628.649658 603.939819,636.291443 603.835083,642.920532 
	C603.746216,648.543457 608.085571,654.300293 614.138306,656.589294 
	C619.885376,658.762756 626.128784,656.780396 631.439758,650.925415 
	C631.675354,650.319641 631.910950,649.713867 632.688660,648.648315 
	C633.126343,647.065735 633.564026,645.483093 634.149109,643.165833 
M502.029663,315.665497 
	C501.965881,316.380951 501.902130,317.096436 501.215881,318.161774 
	C501.177673,319.091064 501.139465,320.020386 501.031189,321.668823 
	C500.987152,322.389618 500.943115,323.110443 500.286194,324.193481 
	C500.232758,325.113831 500.179321,326.034180 500.039062,327.672882 
	C499.998352,328.395142 499.957642,329.117371 499.312164,330.208160 
	C499.250092,331.123657 499.188049,332.039185 499.039032,333.673004 
	C498.998322,334.395203 498.957611,335.117432 498.312134,336.208160 
	C498.250092,337.123657 498.188019,338.039185 498.039062,339.673004 
	C497.998352,340.395203 497.957642,341.117432 497.312195,342.208160 
	C497.250122,343.123657 497.188049,344.039185 497.039032,345.673004 
	C496.998322,346.395203 496.957611,347.117432 496.312164,348.208160 
	C496.250092,349.123657 496.188049,350.039185 496.049316,351.732178 
	C497.142181,352.880493 498.028168,354.563293 499.365173,355.080841 
	C504.106598,356.916290 509.105103,358.101654 513.806152,360.022858 
	C517.519958,361.540588 519.456604,360.745758 521.079407,357.083588 
	C527.553040,342.474548 534.271484,327.974213 540.841553,313.407593 
	C542.732300,309.215485 544.581970,304.989349 546.097107,300.655273 
	C546.432922,299.694763 545.556519,297.361908 544.760803,297.097290 
	C533.615051,293.391754 522.368652,289.991089 511.189362,286.383850 
	C507.959320,285.341644 506.411804,286.698456 505.949005,289.596924 
	C505.409698,292.974915 505.194336,296.404633 504.215912,300.161774 
	C504.177704,301.091064 504.139496,302.020386 504.029694,303.665497 
	C503.965942,304.380951 503.902161,305.096436 503.215912,306.161774 
	C503.177704,307.091064 503.139496,308.020386 503.029633,309.665497 
	C502.965881,310.380951 502.902130,311.096436 502.215912,312.161774 
	C502.177704,313.091064 502.139496,314.020386 502.029663,315.665497 
M463.647949,579.846069 
	C463.400604,583.451111 463.227600,587.063171 462.891846,590.659912 
	C461.929626,600.967957 460.793671,611.260742 459.928833,621.576538 
	C459.028503,632.316101 458.364899,643.075500 457.578705,654.093872 
	C471.663208,653.394897 485.625153,652.702026 499.771759,652.000000 
	C499.896179,650.388550 500.211639,649.218872 500.036346,648.128113 
	C497.955688,635.181274 495.762360,622.252625 493.679840,609.306091 
	C492.065704,599.271606 490.566101,589.218628 488.867950,578.248596 
	C480.977692,578.109497 473.087585,577.951904 465.196716,577.886230 
	C464.804871,577.882935 464.406311,578.679199 463.647949,579.846069 
M329.157562,418.840363 
	C329.733734,418.900482 330.309875,418.960602 331.595917,419.240540 
	C333.268616,419.919861 334.940857,420.600189 336.614044,421.278290 
	C345.455383,424.861481 354.250732,428.567505 363.181183,431.912842 
	C364.783051,432.512848 368.110779,432.282013 368.656891,431.314514 
	C372.349915,424.771606 375.509094,417.927368 378.870636,411.120575 
	C356.526550,396.077545 334.700104,381.383026 312.445740,366.400391 
	C309.527832,371.415344 306.882782,375.740906 304.454468,380.184906 
	C300.532532,387.362335 296.753174,394.617645 292.331940,402.191406 
	C292.879181,402.772888 293.426422,403.354340 294.644470,404.216278 
	C299.379913,406.253021 304.115326,408.289795 309.157562,410.840363 
	C309.733734,410.900482 310.309875,410.960602 311.518158,411.190613 
	C312.295685,411.569244 313.073242,411.947906 314.157562,412.840363 
	C314.733734,412.900482 315.309875,412.960602 316.518158,413.190613 
	C317.295685,413.569275 318.073242,413.947906 319.157562,414.840363 
	C319.733734,414.900482 320.309875,414.960602 321.518158,415.190613 
	C322.295685,415.569244 323.073242,415.947906 324.157562,416.840363 
	C324.733734,416.900482 325.309875,416.960602 326.518158,417.190613 
	C327.295685,417.569275 328.073242,417.947906 329.157562,418.840363 
M402.251099,673.260559 
	C410.605957,675.963318 418.960846,678.666077 428.039490,681.602905 
	C436.025818,646.296692 443.880981,611.570374 451.808502,576.524231 
	C444.586517,574.083984 437.992767,571.711365 431.285187,569.722595 
	C430.075714,569.363953 427.487457,570.187256 427.075073,571.134766 
	C421.865814,583.103943 416.961853,595.205688 411.933838,607.254272 
	C406.335388,620.669739 400.667053,634.056091 395.073914,647.473694 
	C392.192017,654.387146 389.407196,661.341125 386.542358,668.365540 
	C391.815369,670.059387 396.632843,671.606873 402.251099,673.260559 
M552.120972,630.352356 
	C541.918762,609.851196 531.716553,589.350098 521.405945,568.631104 
	C514.691345,571.471191 508.414490,574.333557 501.972229,576.756104 
	C499.117645,577.829590 498.564575,578.737793 499.637726,581.788818 
	C503.580048,592.997070 507.156586,604.336365 510.742676,615.666931 
	C515.500244,630.698669 520.162354,645.760864 524.814087,660.825867 
	C526.587158,666.568359 528.786499,672.265320 529.712769,678.152771 
	C530.326477,682.053162 531.642883,682.173096 534.477905,681.013123 
	C546.271729,676.187683 558.057678,671.343201 570.179626,666.368958 
	C564.302979,654.596008 558.411133,642.792664 552.120972,630.352356 
M337.984222,615.476196 
	C335.955902,617.450256 333.975037,619.476257 331.887360,621.385376 
	C329.240204,623.806030 329.608673,625.860779 332.358276,627.892761 
	C335.144958,629.952148 337.836456,632.139771 340.593353,634.240173 
	C347.884491,639.794861 355.188477,645.332764 362.656586,651.005981 
	C363.716827,649.637695 364.477112,648.777832 365.103912,647.829651 
	C374.754822,633.229797 384.385925,618.616821 394.026703,604.010193 
	C402.027466,591.888306 410.116150,579.822754 417.941803,567.588928 
	C418.979431,565.966797 419.714020,562.393860 418.855591,561.600952 
	C413.296143,556.465820 407.256042,551.851074 401.157104,546.889709 
	C394.153717,554.730652 387.566772,562.322998 380.744659,569.697815 
	C366.726288,584.851807 352.582062,599.889343 337.984222,615.476196 
M398.596222,369.953583 
	C394.114777,364.147125 389.631073,358.342407 385.152344,352.533875 
	C374.099030,338.198761 363.088623,323.830261 351.971863,309.544525 
	C348.515015,305.102295 344.772461,300.882416 341.094543,296.481567 
	C330.473541,306.242462 320.496887,315.411224 310.435974,324.657410 
	C325.467072,338.802917 339.755402,352.163086 353.942688,365.629639 
	C364.297089,375.458038 374.563141,385.380951 384.763947,395.368561 
	C386.989441,397.547516 388.428253,397.286865 390.489410,395.145111 
	C393.228424,392.299164 396.318848,389.781342 399.340118,387.219055 
	C406.618134,381.046875 406.630890,381.074310 400.621826,372.965637 
	C400.045380,372.187775 399.613495,371.302765 398.596222,369.953583 
M448.419403,248.986572 
	C446.797211,249.086685 445.175018,249.186813 443.191315,249.309250 
	C443.191315,251.215759 443.029907,252.834869 443.222778,254.410629 
	C443.720215,258.474426 444.447876,262.509949 444.950897,266.573151 
	C446.101898,275.870117 447.123871,285.183075 448.291718,294.477814 
	C449.460052,303.776306 450.817627,313.051300 451.952942,322.353607 
	C453.067047,331.482330 453.894348,340.647278 455.104858,349.762177 
	C455.385834,351.877716 456.037781,354.338226 459.398193,354.028076 
	C466.110657,353.408630 472.845032,353.026733 479.520172,352.550323 
	C480.039062,349.686615 480.808563,347.114990 480.927063,344.513702 
	C481.696075,327.628754 482.391083,310.739746 482.975403,293.847351 
	C483.422882,280.910278 483.668518,267.966248 484.017609,255.025665 
	C484.039856,254.200165 483.993408,253.300552 484.296631,252.566727 
	C486.149353,248.083160 483.954346,246.765900 479.933136,246.907013 
	C471.001953,247.220413 462.070831,247.545242 453.144073,247.960480 
	C451.858887,248.020264 450.598175,248.606552 448.419403,248.986572 
M365.609406,448.326324 
	C364.006439,447.549927 362.475555,446.361877 360.788422,446.066559 
	C352.272430,444.575958 343.714264,443.327271 335.173645,441.976288 
	C313.070343,438.479828 290.945160,435.111572 268.884430,431.364227 
	C264.077911,430.547760 263.150146,432.475159 262.857941,436.459839 
	C262.062897,447.301422 261.095825,458.130829 260.125397,468.958710 
	C259.878387,471.714966 260.902496,473.163696 263.714752,472.961700 
	C267.000214,472.725739 270.273590,472.077423 273.554443,472.061340 
	C294.634827,471.958069 315.716309,472.052856 336.796448,471.925018 
	C346.015503,471.869110 355.232269,471.441315 364.690491,471.175690 
	C365.116699,463.273163 365.497864,456.205688 365.609406,448.326324 
M626.334839,585.137695 
	C633.278625,589.800903 640.222473,594.464111 647.365906,599.261353 
	C654.198547,586.300964 660.801025,573.776978 667.823486,560.456421 
	C636.448914,547.649841 605.691223,535.095093 574.769775,522.473511 
	C571.583008,528.445984 568.840210,534.033325 565.668579,539.365662 
	C563.713257,542.653259 564.278442,544.275513 567.508667,546.380920 
	C586.983398,559.074280 606.288818,572.027527 626.334839,585.137695 
M316.674683,552.090210 
	C311.185120,554.837830 305.722626,557.641541 300.195007,560.310364 
	C297.253845,561.730408 296.187103,563.039917 298.431702,566.343750 
	C304.802032,575.720398 310.874756,585.306274 316.827484,594.956055 
	C319.038300,598.539978 320.841370,598.195679 323.801880,595.831299 
	C335.655334,586.364807 347.703552,577.142578 359.629395,567.766052 
	C369.878113,559.708130 380.087219,551.598694 390.214325,543.389282 
	C391.031769,542.726685 391.781830,540.692993 391.372467,540.007324 
	C387.861023,534.125671 384.174835,528.338684 380.271179,522.710449 
	C379.633698,521.791321 377.341461,521.050964 376.380371,521.484253 
	C370.660980,524.062866 365.076721,526.950378 359.505371,529.846313 
	C345.450989,537.151489 331.427643,544.516174 316.674683,552.090210 
M594.078857,637.551575 
	C602.425964,630.026978 610.812622,622.544922 619.034241,614.885681 
	C619.604431,614.354553 619.447693,611.959412 618.784851,611.351318 
	C609.088806,602.456787 599.135132,593.842224 589.473022,584.911804 
	C578.070679,574.372925 566.859680,563.625732 555.645874,552.885071 
	C553.832092,551.147705 552.342957,550.226379 550.188416,552.240784 
	C546.216431,555.954529 542.559143,560.196472 538.043823,563.080200 
	C534.045898,565.633545 534.743408,567.503845 536.926575,570.449097 
	C551.051514,589.504761 565.104248,608.613892 579.230591,627.668518 
	C582.616638,632.235718 586.191345,636.663086 589.899780,641.438843 
	C591.418823,640.047424 592.500488,639.056641 594.078857,637.551575 
M417.043182,281.587097 
	C416.153778,277.503204 414.036957,277.122650 410.572205,279.041107 
	C407.710815,280.625488 404.532532,281.640961 401.485687,282.886505 
	C392.908783,286.392761 384.327240,289.887665 375.442627,293.511414 
	C389.315582,319.037872 402.886200,344.007965 416.591705,369.226318 
	C424.555756,365.481506 432.257568,361.860016 440.065216,358.188751 
	C432.282593,332.548584 424.672852,307.478027 417.043182,281.587097 
M337.222626,489.510040 
	C333.326263,489.869324 329.432190,490.256470 325.533020,490.582062 
	C317.678162,491.237915 309.818085,491.832184 301.965210,492.510620 
	C298.930145,492.772858 297.068512,493.558807 298.501587,497.475159 
	C299.828125,501.100372 300.128174,505.095825 300.942963,508.914795 
	C302.759003,517.426697 304.614136,525.930176 306.577637,535.011841 
	C329.023499,527.138062 350.862701,519.477112 372.578064,511.859589 
	C371.339020,505.166290 370.264862,498.926392 369.006348,492.723938 
	C368.211639,488.807190 367.211670,485.073761 361.655212,487.813385 
	C360.314423,488.474426 358.371338,487.829651 356.718445,487.956848 
	C350.485504,488.436768 344.258026,488.987396 337.222626,489.510040 
M643.459351,489.004639 
	C626.049377,489.341125 608.637939,489.623291 591.232300,490.114319 
	C589.794556,490.154907 587.333130,491.422607 587.151672,492.441528 
	C585.899414,499.471649 585.126831,506.587219 584.191406,513.741211 
	C595.633423,516.937134 606.852783,520.057983 618.064331,523.206726 
	C626.754944,525.647522 635.430237,528.142456 644.123840,530.572632 
	C646.929199,531.356873 649.558167,532.234436 650.054749,527.606079 
	C651.418518,514.894104 653.099915,502.216125 654.719421,489.004639 
	C651.045288,489.004639 647.743713,489.004639 643.459351,489.004639 
M268.946320,379.824982 
	C272.780396,389.668610 281.458679,391.954926 289.133118,389.056854 
	C294.582031,386.999146 298.757324,379.964722 298.129944,373.914642 
	C297.431824,367.182556 291.785004,361.803894 283.582916,360.058350 
	C279.425476,359.173615 272.604858,362.857147 270.651001,367.966248 
	C269.355286,371.354340 269.467865,375.281006 268.946320,379.824982 
M236.582230,463.303558 
	C243.433334,466.112091 249.362320,464.865967 254.350067,459.316345 
	C258.379791,454.832703 259.085724,448.780548 256.169464,443.244568 
	C253.334198,437.862335 246.189606,434.047699 240.536331,434.897675 
	C235.470459,435.659302 230.270645,440.999115 228.911209,446.136414 
	C226.922150,453.653168 229.973633,458.856293 236.582230,463.303558 
M475.751587,686.102173 
	C480.045868,687.638794 484.148895,687.379700 488.122131,684.993286 
	C494.405273,681.219666 497.075928,674.434082 494.864868,667.602905 
	C493.139832,662.273254 484.593353,656.215759 479.784241,656.914307 
	C473.835541,657.778381 466.690369,664.217285 465.865479,669.457275 
	C464.770386,676.413696 468.028290,682.329590 475.751587,686.102173 
M466.865112,240.103683 
	C467.889618,239.594925 468.915833,239.089478 469.938416,238.576843 
	C475.150879,235.963699 478.046936,231.569443 477.843597,225.917160 
	C477.645386,220.406998 475.581635,215.475372 470.189087,212.578110 
	C464.359589,209.446060 455.353790,210.916656 451.938293,215.745392 
	C446.220215,223.829544 447.310059,231.553268 453.090393,236.662598 
	C456.937134,240.062729 461.360626,240.263062 466.865112,240.103683 
M555.576477,706.221375 
	C565.893921,712.286743 577.481812,702.882385 577.388611,694.296204 
	C577.317505,687.751770 574.831238,683.098816 569.270447,680.068176 
	C564.956482,677.717102 559.884216,676.752930 555.926819,679.653564 
	C545.581787,687.235962 545.036621,699.108704 555.576477,706.221375 
M385.920868,251.847641 
	C376.670288,255.227844 372.364532,262.700348 375.065491,271.586365 
	C378.055023,281.421753 390.351227,284.913422 398.248505,278.304779 
	C403.826202,273.637207 405.086761,268.420929 402.787109,262.457153 
	C400.033356,255.315704 394.989716,251.982300 385.920868,251.847641 
M528.008789,256.913055 
	C518.467041,260.057709 514.362122,269.635254 518.775879,278.454987 
	C521.968567,284.834747 529.755981,287.760712 536.857788,285.248932 
	C543.902832,282.757263 547.708679,276.150330 546.129761,269.152802 
	C544.184814,260.533508 539.365234,257.129364 528.008789,256.913055 
M269.875000,521.044128 
	C272.071564,529.811707 279.327881,533.280273 284.793762,533.141907 
	C291.872131,532.962769 298.358246,527.285400 299.055298,520.930115 
	C299.962921,512.654663 295.545593,505.349243 288.841675,504.038696 
	C279.157562,502.145538 273.763184,504.864563 270.810455,513.451050 
	C270.087921,515.552307 270.187317,517.936279 269.875000,521.044128 
M402.219788,680.009277 
	C397.502533,679.723206 393.347565,679.941345 389.887939,684.377014 
	C385.706879,689.737671 384.482208,697.045410 388.160706,702.584167 
	C391.845306,708.132141 398.924866,710.413513 405.756744,707.997070 
	C411.916199,705.818420 416.202087,700.313721 415.660004,694.056152 
	C415.038727,686.884827 411.006897,680.550110 402.219788,680.009277 
M663.947571,577.641724 
	C661.980774,581.989075 660.344910,586.185303 661.846680,591.287903 
	C663.928040,598.359558 671.939148,602.879883 680.058167,600.860535 
	C687.310669,599.056702 692.215454,591.019104 690.630676,584.140503 
	C688.212097,573.643250 673.972290,567.071594 663.947571,577.641724 
M334.263458,640.044678 
	C324.256592,639.190918 317.176666,648.925049 319.889923,659.026917 
	C321.830963,666.253906 329.744354,670.788086 337.999908,668.864746 
	C345.260803,667.173096 350.395050,659.043030 348.594910,652.152222 
	C346.760284,645.129517 341.937866,641.502808 334.263458,640.044678 
M300.943237,283.437347 
	C296.767670,288.448547 295.404205,297.683350 298.235840,301.774597 
	C302.002808,307.217224 309.363007,310.123596 315.075745,308.475983 
	C321.207275,306.707611 324.901917,302.448853 326.049957,296.450806 
	C327.360687,289.602661 323.417145,284.801971 318.242523,281.087891 
	C314.726990,278.564636 305.570435,279.787720 300.943237,283.437347 
M292.041779,580.008118 
	C288.484100,580.339905 284.313324,579.604370 281.495087,581.223328 
	C275.437408,584.703247 273.522186,592.026184 275.462250,599.036865 
	C277.472534,606.301331 284.813721,609.163879 290.341858,608.858032 
	C297.133026,608.482300 303.191895,602.357178 303.983887,596.002441 
	C304.745514,589.891113 299.999725,581.225525 292.041779,580.008118 
z"/>
<path fill="#204193" opacity="1.000000" stroke="none" 
	d="
M401.850708,673.207520 
	C396.632843,671.606873 391.815369,670.059387 386.542358,668.365540 
	C389.407196,661.341125 392.192017,654.387146 395.073914,647.473694 
	C400.667053,634.056091 406.335388,620.669739 411.933838,607.254272 
	C416.961853,595.205688 421.865814,583.103943 427.075073,571.134766 
	C427.487457,570.187256 430.075714,569.363953 431.285187,569.722595 
	C437.992767,571.711365 444.586517,574.083984 451.808502,576.524231 
	C443.880981,611.570374 436.025818,646.296692 428.039490,681.602905 
	C418.960846,678.666077 410.605957,675.963318 401.850708,673.207520 
z"/>
<path fill="#214193" opacity="1.000000" stroke="none" 
	d="
M552.320190,630.670837 
	C558.411133,642.792664 564.302979,654.596008 570.179626,666.368958 
	C558.057678,671.343201 546.271729,676.187683 534.477905,681.013123 
	C531.642883,682.173096 530.326477,682.053162 529.712769,678.152771 
	C528.786499,672.265320 526.587158,666.568359 524.814087,660.825867 
	C520.162354,645.760864 515.500244,630.698669 510.742676,615.666931 
	C507.156586,604.336365 503.580048,592.997070 499.637726,581.788818 
	C498.564575,578.737793 499.117645,577.829590 501.972229,576.756104 
	C508.414490,574.333557 514.691345,571.471191 521.405945,568.631104 
	C531.716553,589.350098 541.918762,609.851196 552.320190,630.670837 
z"/>
<path fill="#204093" opacity="1.000000" stroke="none" 
	d="
M338.236938,615.225464 
	C352.582062,599.889343 366.726288,584.851807 380.744659,569.697815 
	C387.566772,562.322998 394.153717,554.730652 401.157104,546.889709 
	C407.256042,551.851074 413.296143,556.465820 418.855591,561.600952 
	C419.714020,562.393860 418.979431,565.966797 417.941803,567.588928 
	C410.116150,579.822754 402.027466,591.888306 394.026703,604.010193 
	C384.385925,618.616821 374.754822,633.229797 365.103912,647.829651 
	C364.477112,648.777832 363.716827,649.637695 362.656586,651.005981 
	C355.188477,645.332764 347.884491,639.794861 340.593353,634.240173 
	C337.836456,632.139771 335.144958,629.952148 332.358276,627.892761 
	C329.608673,625.860779 329.240204,623.806030 331.887360,621.385376 
	C333.975037,619.476257 335.955902,617.450256 338.236938,615.225464 
z"/>
<path fill="#204093" opacity="1.000000" stroke="none" 
	d="
M398.855347,370.210541 
	C399.613495,371.302765 400.045380,372.187775 400.621826,372.965637 
	C406.630890,381.074310 406.618134,381.046875 399.340118,387.219055 
	C396.318848,389.781342 393.228424,392.299164 390.489410,395.145111 
	C388.428253,397.286865 386.989441,397.547516 384.763947,395.368561 
	C374.563141,385.380951 364.297089,375.458038 353.942688,365.629639 
	C339.755402,352.163086 325.467072,338.802917 310.435974,324.657410 
	C320.496887,315.411224 330.473541,306.242462 341.094543,296.481567 
	C344.772461,300.882416 348.515015,305.102295 351.971863,309.544525 
	C363.088623,323.830261 374.099030,338.198761 385.152344,352.533875 
	C389.631073,358.342407 394.114777,364.147125 398.855347,370.210541 
z"/>
<path fill="#1F3F92" opacity="1.000000" stroke="none" 
	d="
M448.872742,248.967880 
	C450.598175,248.606552 451.858887,248.020264 453.144073,247.960480 
	C462.070831,247.545242 471.001953,247.220413 479.933136,246.907013 
	C483.954346,246.765900 486.149353,248.083160 484.296631,252.566727 
	C483.993408,253.300552 484.039856,254.200165 484.017609,255.025665 
	C483.668518,267.966248 483.422882,280.910278 482.975403,293.847351 
	C482.391083,310.739746 481.696075,327.628754 480.927063,344.513702 
	C480.808563,347.114990 480.039062,349.686615 479.520172,352.550323 
	C472.845032,353.026733 466.110657,353.408630 459.398193,354.028076 
	C456.037781,354.338226 455.385834,351.877716 455.104858,349.762177 
	C453.894348,340.647278 453.067047,331.482330 451.952942,322.353607 
	C450.817627,313.051300 449.460052,303.776306 448.291718,294.477814 
	C447.123871,285.183075 446.101898,275.870117 444.950897,266.573151 
	C444.447876,262.509949 443.720215,258.474426 443.222778,254.410629 
	C443.029907,252.834869 443.191315,251.215759 443.191315,249.309250 
	C445.175018,249.186813 446.797211,249.086685 448.872742,248.967880 
z"/>
<path fill="#1F3F92" opacity="1.000000" stroke="none" 
	d="
M365.744202,448.732269 
	C365.497864,456.205688 365.116699,463.273163 364.690491,471.175690 
	C355.232269,471.441315 346.015503,471.869110 336.796448,471.925018 
	C315.716309,472.052856 294.634827,471.958069 273.554443,472.061340 
	C270.273590,472.077423 267.000214,472.725739 263.714752,472.961700 
	C260.902496,473.163696 259.878387,471.714966 260.125397,468.958710 
	C261.095825,458.130829 262.062897,447.301422 262.857941,436.459839 
	C263.150146,432.475159 264.077911,430.547760 268.884430,431.364227 
	C290.945160,435.111572 313.070343,438.479828 335.173645,441.976288 
	C343.714264,443.327271 352.272430,444.575958 360.788422,446.066559 
	C362.475555,446.361877 364.006439,447.549927 365.744202,448.732269 
z"/>
<path fill="#204093" opacity="1.000000" stroke="none" 
	d="
M625.992859,585.015747 
	C606.288818,572.027527 586.983398,559.074280 567.508667,546.380920 
	C564.278442,544.275513 563.713257,542.653259 565.668579,539.365662 
	C568.840210,534.033325 571.583008,528.445984 574.769775,522.473511 
	C605.691223,535.095093 636.448914,547.649841 667.823486,560.456421 
	C660.801025,573.776978 654.198547,586.300964 647.365906,599.261353 
	C640.222473,594.464111 633.278625,589.800903 625.992859,585.015747 
z"/>
<path fill="#204093" opacity="1.000000" stroke="none" 
	d="
M317.033264,551.973633 
	C331.427643,544.516174 345.450989,537.151489 359.505371,529.846313 
	C365.076721,526.950378 370.660980,524.062866 376.380371,521.484253 
	C377.341461,521.050964 379.633698,521.791321 380.271179,522.710449 
	C384.174835,528.338684 387.861023,534.125671 391.372467,540.007324 
	C391.781830,540.692993 391.031769,542.726685 390.214325,543.389282 
	C380.087219,551.598694 369.878113,559.708130 359.629395,567.766052 
	C347.703552,577.142578 335.655334,586.364807 323.801880,595.831299 
	C320.841370,598.195679 319.038300,598.539978 316.827484,594.956055 
	C310.874756,585.306274 304.802032,575.720398 298.431702,566.343750 
	C296.187103,563.039917 297.253845,561.730408 300.195007,560.310364 
	C305.722626,557.641541 311.185120,554.837830 317.033264,551.973633 
z"/>
<path fill="#204093" opacity="1.000000" stroke="none" 
	d="
M593.830505,637.808716 
	C592.500488,639.056641 591.418823,640.047424 589.899780,641.438843 
	C586.191345,636.663086 582.616638,632.235718 579.230591,627.668518 
	C565.104248,608.613892 551.051514,589.504761 536.926575,570.449097 
	C534.743408,567.503845 534.045898,565.633545 538.043823,563.080200 
	C542.559143,560.196472 546.216431,555.954529 550.188416,552.240784 
	C552.342957,550.226379 553.832092,551.147705 555.645874,552.885071 
	C566.859680,563.625732 578.070679,574.372925 589.473022,584.911804 
	C599.135132,593.842224 609.088806,602.456787 618.784851,611.351318 
	C619.447693,611.959412 619.604431,614.354553 619.034241,614.885681 
	C610.812622,622.544922 602.425964,630.026978 593.830505,637.808716 
z"/>
<path fill="#214193" opacity="1.000000" stroke="none" 
	d="
M417.053162,281.997284 
	C424.672852,307.478027 432.282593,332.548584 440.065216,358.188751 
	C432.257568,361.860016 424.555756,365.481506 416.591705,369.226318 
	C402.886200,344.007965 389.315582,319.037872 375.442627,293.511414 
	C384.327240,289.887665 392.908783,286.392761 401.485687,282.886505 
	C404.532532,281.640961 407.710815,280.625488 410.572205,279.041107 
	C414.036957,277.122650 416.153778,277.503204 417.053162,281.997284 
z"/>
<path fill="#204093" opacity="1.000000" stroke="none" 
	d="
M292.913605,401.840057 
	C296.753174,394.617645 300.532532,387.362335 304.454468,380.184906 
	C306.882782,375.740906 309.527832,371.415344 312.445740,366.400391 
	C334.700104,381.383026 356.526550,396.077545 378.870636,411.120575 
	C375.509094,417.927368 372.349915,424.771606 368.656891,431.314514 
	C368.110779,432.282013 364.783051,432.512848 363.181183,431.912842 
	C354.250732,428.567505 345.455383,424.861481 336.614044,421.278290 
	C334.940857,420.600189 333.268616,419.919861 330.998047,419.015411 
	C329.883728,418.635712 329.367249,418.481110 328.850769,418.326538 
	C328.073242,417.947906 327.295685,417.569275 325.959167,416.990448 
	C324.883728,416.635712 324.367249,416.481110 323.850769,416.326538 
	C323.073242,415.947906 322.295685,415.569244 320.959167,414.990448 
	C319.883728,414.635712 319.367249,414.481110 318.850769,414.326538 
	C318.073242,413.947906 317.295685,413.569275 315.959167,412.990417 
	C314.883728,412.635681 314.367249,412.481110 313.850769,412.326538 
	C313.073242,411.947906 312.295685,411.569244 310.959167,410.990417 
	C309.883728,410.635681 309.367249,410.481110 308.850769,410.326538 
	C304.115326,408.289795 299.379913,406.253021 294.179413,403.812744 
	C293.447418,402.886169 293.180511,402.363098 292.913605,401.840057 
z"/>
<path fill="#204093" opacity="1.000000" stroke="none" 
	d="
M489.015564,579.173889 
	C490.566101,589.218628 492.065704,599.271606 493.679840,609.306091 
	C495.762360,622.252625 497.955688,635.181274 500.036346,648.128113 
	C500.211639,649.218872 499.896179,650.388550 499.771759,652.000000 
	C485.625153,652.702026 471.663208,653.394897 457.578705,654.093872 
	C458.364899,643.075500 459.028503,632.316101 459.928833,621.576538 
	C460.793671,611.260742 461.929626,600.967957 462.891846,590.659912 
	C463.227600,587.063171 463.400604,583.451111 464.296356,579.471313 
	C472.968353,579.122314 480.991974,579.148071 489.015564,579.173889 
z"/>
<path fill="#214193" opacity="1.000000" stroke="none" 
	d="
M337.625549,489.510803 
	C344.258026,488.987396 350.485504,488.436768 356.718445,487.956848 
	C358.371338,487.829651 360.314423,488.474426 361.655212,487.813385 
	C367.211670,485.073761 368.211639,488.807190 369.006348,492.723938 
	C370.264862,498.926392 371.339020,505.166290 372.578064,511.859589 
	C350.862701,519.477112 329.023499,527.138062 306.577637,535.011841 
	C304.614136,525.930176 302.759003,517.426697 300.942963,508.914795 
	C300.128174,505.095825 299.828125,501.100372 298.501587,497.475159 
	C297.068512,493.558807 298.930145,492.772858 301.965210,492.510620 
	C309.818085,491.832184 317.678162,491.237915 325.533020,490.582062 
	C329.432190,490.256470 333.326263,489.869324 337.625549,489.510803 
z"/>
<path fill="#204093" opacity="1.000000" stroke="none" 
	d="
M499.916962,329.839630 
	C499.957642,329.117371 499.998352,328.395142 500.193542,327.010498 
	C500.531708,325.509155 500.715393,324.670197 500.899048,323.831238 
	C500.943115,323.110443 500.987152,322.389618 501.179504,321.005890 
	C501.498016,319.499268 501.668213,318.655579 501.838379,317.811890 
	C501.902130,317.096436 501.965881,316.380951 502.178772,315.004211 
	C502.498047,313.499268 502.668213,312.655579 502.838379,311.811890 
	C502.902130,311.096436 502.965881,310.380951 503.178741,309.004211 
	C503.498016,307.499268 503.668182,306.655579 503.838379,305.811890 
	C503.902161,305.096436 503.965942,304.380951 504.178772,303.004211 
	C504.498047,301.499268 504.668213,300.655579 504.838379,299.811890 
	C505.194336,296.404633 505.409698,292.974915 505.949005,289.596924 
	C506.411804,286.698456 507.959320,285.341644 511.189362,286.383850 
	C522.368652,289.991089 533.615051,293.391754 544.760803,297.097290 
	C545.556519,297.361908 546.432922,299.694763 546.097107,300.655273 
	C544.581970,304.989349 542.732300,309.215485 540.841553,313.407593 
	C534.271484,327.974213 527.553040,342.474548 521.079407,357.083588 
	C519.456604,360.745758 517.519958,361.540588 513.806152,360.022858 
	C509.105103,358.101654 504.106598,356.916290 499.365173,355.080841 
	C498.028168,354.563293 497.142181,352.880493 496.198608,351.040863 
	C496.537567,349.512909 496.727264,348.676270 496.916931,347.839630 
	C496.957611,347.117432 496.998322,346.395203 497.193451,345.011292 
	C497.537567,343.512909 497.727264,342.676270 497.916931,341.839630 
	C497.957642,341.117432 497.998352,340.395203 498.193420,339.011292 
	C498.537506,337.512909 498.727203,336.676270 498.916901,335.839630 
	C498.957611,335.117432 498.998322,334.395203 499.193451,333.011292 
	C499.537567,331.512909 499.727264,330.676270 499.916962,329.839630 
z"/>
<path fill="#204093" opacity="1.000000" stroke="none" 
	d="
M643.950684,489.004639 
	C647.743713,489.004639 651.045288,489.004639 654.719421,489.004639 
	C653.099915,502.216125 651.418518,514.894104 650.054749,527.606079 
	C649.558167,532.234436 646.929199,531.356873 644.123840,530.572632 
	C635.430237,528.142456 626.754944,525.647522 618.064331,523.206726 
	C606.852783,520.057983 595.633423,516.937134 584.191406,513.741211 
	C585.126831,506.587219 585.899414,499.471649 587.151672,492.441528 
	C587.333130,491.422607 589.794556,490.154907 591.232300,490.114319 
	C608.637939,489.623291 626.049377,489.341125 643.950684,489.004639 
z"/>
<path fill="#224294" opacity="1.000000" stroke="none" 
	d="
M268.948181,379.395782 
	C269.467865,375.281006 269.355286,371.354340 270.651001,367.966248 
	C272.604858,362.857147 279.425476,359.173615 283.582916,360.058350 
	C291.785004,361.803894 297.431824,367.182556 298.129944,373.914642 
	C298.757324,379.964722 294.582031,386.999146 289.133118,389.056854 
	C281.458679,391.954926 272.780396,389.668610 268.948181,379.395782 
z"/>
<path fill="#214193" opacity="1.000000" stroke="none" 
	d="
M236.226898,463.150757 
	C229.973633,458.856293 226.922150,453.653168 228.911209,446.136414 
	C230.270645,440.999115 235.470459,435.659302 240.536331,434.897675 
	C246.189606,434.047699 253.334198,437.862335 256.169464,443.244568 
	C259.085724,448.780548 258.379791,454.832703 254.350067,459.316345 
	C249.362320,464.865967 243.433334,466.112091 236.226898,463.150757 
z"/>
<path fill="#224294" opacity="1.000000" stroke="none" 
	d="
M475.356445,686.038147 
	C468.028290,682.329590 464.770386,676.413696 465.865479,669.457275 
	C466.690369,664.217285 473.835541,657.778381 479.784241,656.914307 
	C484.593353,656.215759 493.139832,662.273254 494.864868,667.602905 
	C497.075928,674.434082 494.405273,681.219666 488.122131,684.993286 
	C484.148895,687.379700 480.045868,687.638794 475.356445,686.038147 
z"/>
<path fill="#224294" opacity="1.000000" stroke="none" 
	d="
M466.437500,240.111526 
	C461.360626,240.263062 456.937134,240.062729 453.090393,236.662598 
	C447.310059,231.553268 446.220215,223.829544 451.938293,215.745392 
	C455.353790,210.916656 464.359589,209.446060 470.189087,212.578110 
	C475.581635,215.475372 477.645386,220.406998 477.843597,225.917160 
	C478.046936,231.569443 475.150879,235.963699 469.938416,238.576843 
	C468.915833,239.089478 467.889618,239.594925 466.437500,240.111526 
z"/>
<path fill="#224294" opacity="1.000000" stroke="none" 
	d="
M555.211670,706.089600 
	C545.036621,699.108704 545.581787,687.235962 555.926819,679.653564 
	C559.884216,676.752930 564.956482,677.717102 569.270447,680.068176 
	C574.831238,683.098816 577.317505,687.751770 577.388611,694.296204 
	C577.481812,702.882385 565.893921,712.286743 555.211670,706.089600 
z"/>
<path fill="#214193" opacity="1.000000" stroke="none" 
	d="
M386.343048,251.857849 
	C394.989716,251.982300 400.033356,255.315704 402.787109,262.457153 
	C405.086761,268.420929 403.826202,273.637207 398.248505,278.304779 
	C390.351227,284.913422 378.055023,281.421753 375.065491,271.586365 
	C372.364532,262.700348 376.670288,255.227844 386.343048,251.857849 
z"/>
<path fill="#224294" opacity="1.000000" stroke="none" 
	d="
M528.437988,256.936523 
	C539.365234,257.129364 544.184814,260.533508 546.129761,269.152802 
	C547.708679,276.150330 543.902832,282.757263 536.857788,285.248932 
	C529.755981,287.760712 521.968567,284.834747 518.775879,278.454987 
	C514.362122,269.635254 518.467041,260.057709 528.437988,256.936523 
z"/>
<path fill="#224294" opacity="1.000000" stroke="none" 
	d="
M269.891907,520.617188 
	C270.187317,517.936279 270.087921,515.552307 270.810455,513.451050 
	C273.763184,504.864563 279.157562,502.145538 288.841675,504.038696 
	C295.545593,505.349243 299.962921,512.654663 299.055298,520.930115 
	C298.358246,527.285400 291.872131,532.962769 284.793762,533.141907 
	C279.327881,533.280273 272.071564,529.811707 269.891907,520.617188 
z"/>
<path fill="#214193" opacity="1.000000" stroke="none" 
	d="
M402.658875,680.009766 
	C411.006897,680.550110 415.038727,686.884827 415.660004,694.056152 
	C416.202087,700.313721 411.916199,705.818420 405.756744,707.997070 
	C398.924866,710.413513 391.845306,708.132141 388.160706,702.584167 
	C384.482208,697.045410 385.706879,689.737671 389.887939,684.377014 
	C393.347565,679.941345 397.502533,679.723206 402.658875,680.009766 
z"/>
<path fill="#204193" opacity="1.000000" stroke="none" 
	d="
M664.140137,577.310547 
	C673.972290,567.071594 688.212097,573.643250 690.630676,584.140503 
	C692.215454,591.019104 687.310669,599.056702 680.058167,600.860535 
	C671.939148,602.879883 663.928040,598.359558 661.846680,591.287903 
	C660.344910,586.185303 661.980774,581.989075 664.140137,577.310547 
z"/>
<path fill="#204193" opacity="1.000000" stroke="none" 
	d="
M334.676483,640.089233 
	C341.937866,641.502808 346.760284,645.129517 348.594910,652.152222 
	C350.395050,659.043030 345.260803,667.173096 337.999908,668.864746 
	C329.744354,670.788086 321.830963,666.253906 319.889923,659.026917 
	C317.176666,648.925049 324.256592,639.190918 334.676483,640.089233 
z"/>
<path fill="#214193" opacity="1.000000" stroke="none" 
	d="
M301.217407,283.168488 
	C305.570435,279.787720 314.726990,278.564636 318.242523,281.087891 
	C323.417145,284.801971 327.360687,289.602661 326.049957,296.450806 
	C324.901917,302.448853 321.207275,306.707611 315.075745,308.475983 
	C309.363007,310.123596 302.002808,307.217224 298.235840,301.774597 
	C295.404205,297.683350 296.767670,288.448547 301.217407,283.168488 
z"/>
<path fill="#214193" opacity="1.000000" stroke="none" 
	d="
M630.855225,651.281433 
	C626.128784,656.780396 619.885376,658.762756 614.138306,656.589294 
	C608.085571,654.300293 603.746216,648.543457 603.835083,642.920532 
	C603.939819,636.291443 609.844543,628.649658 615.633606,628.036743 
	C623.636353,627.189331 631.452148,630.137024 633.118774,639.803833 
	C633.460144,641.649963 633.730896,642.775208 634.001709,643.900513 
	C633.564026,645.483093 633.126343,647.065735 632.252930,649.140015 
	C631.496521,650.181580 631.175842,650.731506 630.855225,651.281433 
z"/>
<path fill="#204093" opacity="1.000000" stroke="none" 
	d="
M292.475220,580.011963 
	C299.999725,581.225525 304.745514,589.891113 303.983887,596.002441 
	C303.191895,602.357178 297.133026,608.482300 290.341858,608.858032 
	C284.813721,609.163879 277.472534,606.301331 275.462250,599.036865 
	C273.522186,592.026184 275.437408,584.703247 281.495087,581.223328 
	C284.313324,579.604370 288.484100,580.339905 292.475220,580.011963 
z"/>
<path fill="#204193" opacity="1.000000" stroke="none" 
	d="
M661.858154,521.073181 
	C661.541016,520.996033 661.286560,520.825378 660.877563,520.096802 
	C660.401245,519.140198 660.142151,518.648132 659.883057,518.156006 
	C656.434387,512.366760 657.152405,506.519653 660.363159,501.087067 
	C663.891418,495.117371 670.175110,495.086121 675.785889,496.230682 
	C680.719727,497.237183 685.112488,500.223328 686.087524,506.829865 
	C686.395203,509.030334 686.668396,510.485718 686.941650,511.941132 
	C686.522888,513.510742 686.104126,515.080322 685.249756,517.142090 
	C684.485901,518.187439 684.157654,518.740601 683.829407,519.293701 
	C678.535889,525.620544 671.608765,526.857361 663.885193,522.316528 
	C662.904968,521.597656 662.381531,521.335449 661.858154,521.073181 
z"/>
<path fill="#224294" opacity="1.000000" stroke="none" 
	d="
M488.941772,578.711243 
	C480.991974,579.148071 472.968353,579.122314 464.477844,579.099854 
	C464.406311,578.679199 464.804871,577.882935 465.196716,577.886230 
	C473.087585,577.951904 480.977692,578.109497 488.941772,578.711243 
z"/>
<path fill="#224294" opacity="1.000000" stroke="none" 
	d="
M687.009766,511.551208 
	C686.668396,510.485718 686.395203,509.030334 686.131226,507.197632 
	C686.452942,508.267334 686.765442,509.714325 687.009766,511.551208 
z"/>
<path fill="#224294" opacity="1.000000" stroke="none" 
	d="
M634.075439,643.533203 
	C633.730896,642.775208 633.460144,641.649963 633.181641,640.172668 
	C633.498962,640.935730 633.824036,642.050781 634.075439,643.533203 
z"/>
<path fill="#224294" opacity="1.000000" stroke="none" 
	d="
M500.592621,324.012360 
	C500.715393,324.670197 500.531708,325.509155 500.236969,326.651337 
	C500.179321,326.034180 500.232758,325.113831 500.592621,324.012360 
z"/>
<path fill="#224294" opacity="1.000000" stroke="none" 
	d="
M504.527161,299.986816 
	C504.668213,300.655579 504.498047,301.499268 504.214569,302.646301 
	C504.139496,302.020386 504.177704,301.091064 504.527161,299.986816 
z"/>
<path fill="#224294" opacity="1.000000" stroke="none" 
	d="
M503.527161,305.986816 
	C503.668182,306.655579 503.498016,307.499268 503.214569,308.646301 
	C503.139496,308.020386 503.177704,307.091064 503.527161,305.986816 
z"/>
<path fill="#224294" opacity="1.000000" stroke="none" 
	d="
M502.527161,311.986816 
	C502.668213,312.655579 502.498047,313.499268 502.214600,314.646301 
	C502.139496,314.020386 502.177704,313.091064 502.527161,311.986816 
z"/>
<path fill="#224294" opacity="1.000000" stroke="none" 
	d="
M501.527130,317.986816 
	C501.668213,318.655579 501.498016,319.499268 501.214539,320.646301 
	C501.139465,320.020386 501.177673,319.091064 501.527130,317.986816 
z"/>
<path fill="#224294" opacity="1.000000" stroke="none" 
	d="
M499.614563,330.023895 
	C499.727264,330.676270 499.537567,331.512909 499.236938,332.652100 
	C499.188049,332.039185 499.250092,331.123657 499.614563,330.023895 
z"/>
<path fill="#224294" opacity="1.000000" stroke="none" 
	d="
M498.614502,336.023895 
	C498.727203,336.676270 498.537506,337.512909 498.236877,338.652100 
	C498.188019,338.039185 498.250092,337.123657 498.614502,336.023895 
z"/>
<path fill="#224294" opacity="1.000000" stroke="none" 
	d="
M497.614563,342.023895 
	C497.727264,342.676270 497.537567,343.512909 497.236938,344.652100 
	C497.188049,344.039185 497.250122,343.123657 497.614563,342.023895 
z"/>
<path fill="#224294" opacity="1.000000" stroke="none" 
	d="
M496.614563,348.023895 
	C496.727264,348.676270 496.537567,349.512909 496.236938,350.652100 
	C496.188049,350.039185 496.250092,349.123657 496.614563,348.023895 
z"/>
<path fill="#204193" opacity="1.000000" stroke="none" 
	d="
M292.622772,402.015747 
	C293.180511,402.363098 293.447418,402.886169 293.843994,403.672516 
	C293.426422,403.354340 292.879181,402.772888 292.622772,402.015747 
z"/>
<path fill="#204193" opacity="1.000000" stroke="none" 
	d="
M309.004150,410.583435 
	C309.367249,410.481110 309.883728,410.635681 310.643127,410.905487 
	C310.309875,410.960602 309.733734,410.900482 309.004150,410.583435 
z"/>
<path fill="#224294" opacity="1.000000" stroke="none" 
	d="
M662.026123,521.333374 
	C662.381531,521.335449 662.904968,521.597656 663.680420,522.006287 
	C663.353088,521.966309 662.773621,521.779907 662.026123,521.333374 
z"/>
<path fill="#224294" opacity="1.000000" stroke="none" 
	d="
M659.909790,518.453247 
	C660.142151,518.648132 660.401245,519.140198 660.770020,519.889343 
	C660.565369,519.681091 660.250977,519.215820 659.909790,518.453247 
z"/>
<path fill="#224294" opacity="1.000000" stroke="none" 
	d="
M684.126099,519.114624 
	C684.157654,518.740601 684.485901,518.187439 684.981323,517.371094 
	C684.906616,517.717163 684.664673,518.326355 684.126099,519.114624 
z"/>
<path fill="#204193" opacity="1.000000" stroke="none" 
	d="
M329.004150,418.583435 
	C329.367249,418.481110 329.883728,418.635712 330.643127,418.905518 
	C330.309875,418.960602 329.733734,418.900482 329.004150,418.583435 
z"/>
<path fill="#224294" opacity="1.000000" stroke="none" 
	d="
M631.147461,651.103394 
	C631.175842,650.731506 631.496521,650.181580 631.981873,649.369873 
	C631.910950,649.713867 631.675354,650.319641 631.147461,651.103394 
z"/>
<path fill="#204193" opacity="1.000000" stroke="none" 
	d="
M324.004150,416.583435 
	C324.367249,416.481110 324.883728,416.635712 325.643127,416.905518 
	C325.309875,416.960602 324.733734,416.900482 324.004150,416.583435 
z"/>
<path fill="#204193" opacity="1.000000" stroke="none" 
	d="
M319.004150,414.583435 
	C319.367249,414.481110 319.883728,414.635712 320.643127,414.905518 
	C320.309875,414.960602 319.733734,414.900482 319.004150,414.583435 
z"/>
<path fill="#204193" opacity="1.000000" stroke="none" 
	d="
M314.004150,412.583435 
	C314.367249,412.481110 314.883728,412.635681 315.643127,412.905487 
	C315.309875,412.960602 314.733734,412.900482 314.004150,412.583435 
z"/>
</svg>